<?xml version="1.0"?><svg width="342.66666666666663" height="404" xmlns="http://www.w3.org/2000/svg">
 <title>Gold Crown</title>

 <metadata id="metadata7">image/svg+xml</metadata>
 <g>
  <title>Layer 1</title>
  <g id="svg_2">
   <path fill="#ffcc00" fill-rule="evenodd" marker-start="none" marker-mid="none" marker-end="none" stroke-miterlimit="4" stroke-dashoffset="0" d="m134.939911,186.054947c0.005188,9.007813 -7.295578,16.31279 -16.303368,16.31279c-9.007782,0 -16.308533,-7.304977 -16.303345,-16.31279c-0.005188,-9.007797 7.295563,-16.312775 16.303345,-16.312775c9.00779,0 16.308556,7.304977 16.303368,16.312775z" id="path3165"/>
   <path fill="#ffcc00" fill-rule="evenodd" marker-start="none" marker-mid="none" marker-end="none" stroke-miterlimit="4" stroke-dashoffset="0" d="m123.666183,175.602951c0.001137,1.124283 -0.597977,2.163589 -1.571373,2.725998c-0.97345,0.562454 -2.173073,0.562454 -3.146507,0c-0.973427,-0.562408 -1.57254,-1.601715 -1.571365,-2.725998c-0.00119,-1.124237 0.597939,-2.163589 1.571365,-2.726013c0.973434,-0.5625 2.173058,-0.5625 3.146507,0c0.973396,0.562424 1.57251,1.601776 1.571373,2.726013z" id="path3167"/>
   <path fill="#ffcc00" fill-rule="evenodd" marker-start="none" marker-mid="none" marker-end="none" stroke-miterlimit="4" stroke-dashoffset="0" d="m132.519196,182.856598c0.001144,1.124283 -0.597961,2.163589 -1.57135,2.726044c-0.973465,0.562454 -2.173096,0.562454 -3.146538,0c-0.973396,-0.562454 -1.57251,-1.601761 -1.571365,-2.726044c-0.001144,-1.124207 0.597969,-2.163544 1.571365,-2.725967c0.973442,-0.5625 2.173073,-0.5625 3.146538,0c0.973389,0.562424 1.572495,1.601761 1.57135,2.725967z" id="path3169"/>
   <path fill="#ffcc00" fill-rule="evenodd" marker-start="none" marker-mid="none" marker-end="none" stroke-miterlimit="4" stroke-dashoffset="0" d="m122.447548,185.826416c0.001366,1.321655 -0.702934,2.543488 -1.847267,3.204636c-1.144363,0.661224 -2.554642,0.661224 -3.698997,0c-1.144333,-0.661148 -1.848625,-1.88298 -1.847275,-3.204636c-0.00135,-1.321625 0.702942,-2.543503 1.847275,-3.204681c1.144356,-0.661224 2.554634,-0.661224 3.698997,0c1.144333,0.661179 1.848633,1.883057 1.847267,3.204681z" id="path3171"/>
   <path fill="#ffcc00" fill-rule="evenodd" marker-start="none" marker-mid="none" marker-end="none" stroke-miterlimit="4" stroke-dashoffset="0" d="m113.327942,179.086929c0.001167,1.124283 -0.597939,2.163559 -1.571365,2.726013c-0.97345,0.562454 -2.17305,0.562454 -3.14653,0c-0.973396,-0.562454 -1.57251,-1.60173 -1.57135,-2.726013c-0.00116,-1.124191 0.597954,-2.163544 1.57135,-2.725998c0.97348,-0.562454 2.17308,-0.562454 3.14653,0c0.973427,0.562454 1.572533,1.601807 1.571365,2.725998z" id="path3173"/>
   <path fill="#ffcc00" fill-rule="evenodd" marker-start="none" marker-mid="none" marker-end="none" stroke-miterlimit="4" stroke-dashoffset="0" d="m111.271767,189.367889c0.001144,1.124283 -0.597954,2.163544 -1.571388,2.725998c-0.973442,0.562469 -2.17305,0.562469 -3.146507,0c-0.973412,-0.562454 -1.572517,-1.601715 -1.571358,-2.725998c-0.00116,-1.124207 0.597946,-2.163544 1.571358,-2.726013c0.973457,-0.562454 2.173065,-0.562454 3.146507,0c0.973434,0.562469 1.572533,1.601807 1.571388,2.726013z" id="path3175"/>
   <path fill="#ffcc00" fill-rule="evenodd" marker-start="none" marker-mid="none" marker-end="none" stroke-miterlimit="4" stroke-dashoffset="0" d="m119.610786,196.678833c0.001152,1.124283 -0.597954,2.163544 -1.57135,2.726013c-0.97345,0.562454 -2.173073,0.562454 -3.146515,0c-0.973389,-0.562469 -1.57251,-1.60173 -1.571358,-2.726013c-0.001152,-1.124207 0.597969,-2.163544 1.571358,-2.725998c0.973442,-0.562469 2.173065,-0.562469 3.146515,0c0.973396,0.562454 1.572502,1.601791 1.57135,2.725998z" id="path3177"/>
   <path fill="#ffcc00" fill-rule="evenodd" marker-start="none" marker-mid="none" marker-end="none" stroke-miterlimit="4" stroke-dashoffset="0" d="m130.234467,192.794907c0.001129,1.124237 -0.597961,2.163544 -1.571381,2.725952c-0.97345,0.5625 -2.173065,0.5625 -3.146523,0c-0.973396,-0.562408 -1.572502,-1.601715 -1.571365,-2.725952c-0.001137,-1.124252 0.597969,-2.163589 1.571365,-2.726059c0.973457,-0.562454 2.173073,-0.562454 3.146523,0c0.973419,0.562469 1.57251,1.601807 1.571381,2.726059z" id="path3179"/>
   <path fill="#ffcc00" fill-rule="evenodd" marker-start="none" marker-mid="none" marker-end="none" stroke-miterlimit="4" stroke-dashoffset="0" d="m83.30645,194.394089c0.005188,9.007813 -7.295593,16.31282 -16.303368,16.31282c-9.007771,0 -16.308533,-7.305008 -16.303352,-16.31282c-0.00518,-9.007721 7.295582,-16.312729 16.303352,-16.312729c9.007774,0 16.308556,7.305008 16.303368,16.312729z" id="path4073"/>
   <path fill="#ffcc00" fill-rule="evenodd" marker-start="none" marker-mid="none" marker-end="none" stroke-miterlimit="4" stroke-dashoffset="0" d="m72.032837,183.942123c0.001152,1.124252 -0.597954,2.163559 -1.571358,2.725967c-0.973457,0.5625 -2.173073,0.5625 -3.146538,0c-0.973389,-0.562408 -1.57251,-1.601715 -1.571335,-2.725967c-0.001175,-1.124191 0.597946,-2.163574 1.571335,-2.726044c0.973465,-0.562454 2.17308,-0.562454 3.146538,0c0.973404,0.562469 1.57251,1.601852 1.571358,2.726044z" id="path4075"/>
   <path fill="#ffcc00" fill-rule="evenodd" marker-start="none" marker-mid="none" marker-end="none" stroke-miterlimit="4" stroke-dashoffset="0" d="m80.885727,191.195786c0.00116,1.124283 -0.597954,2.163589 -1.57135,2.725998c-0.973465,0.562469 -2.17308,0.562469 -3.146515,0c-0.973419,-0.562408 -1.57254,-1.601715 -1.571373,-2.725998c-0.001167,-1.124207 0.597954,-2.163589 1.571373,-2.725967c0.973434,-0.5625 2.17305,-0.5625 3.146515,0c0.973396,0.562378 1.57251,1.601761 1.57135,2.725967z" id="path4077"/>
   <path fill="#ffcc00" fill-rule="evenodd" marker-start="none" marker-mid="none" marker-end="none" stroke-miterlimit="4" stroke-dashoffset="0" d="m70.814217,194.165588c0.00135,1.321671 -0.702934,2.543457 -1.847275,3.204636c-1.144371,0.66127 -2.554619,0.66127 -3.699005,0c-1.144325,-0.661179 -1.848618,-1.882965 -1.847256,-3.204636c-0.001369,-1.321625 0.70293,-2.543488 1.847256,-3.204666c1.144386,-0.66124 2.554634,-0.66124 3.699005,0c1.144341,0.661179 1.848625,1.883041 1.847275,3.204666z" id="path4079"/>
   <path fill="#ffcc00" fill-rule="evenodd" marker-start="none" marker-mid="none" marker-end="none" stroke-miterlimit="4" stroke-dashoffset="0" d="m61.694611,187.426086c0.00116,1.124268 -0.59795,2.163574 -1.571362,2.726044c-0.97345,0.562454 -2.173069,0.562454 -3.146519,0c-0.9734,-0.562469 -1.572521,-1.601776 -1.57135,-2.726044c-0.001171,-1.124207 0.59795,-2.163559 1.57135,-2.725967c0.97345,-0.5625 2.173069,-0.5625 3.146519,0c0.973412,0.562408 1.572521,1.601761 1.571362,2.725967z" id="path4081"/>
   <path fill="#ffcc00" fill-rule="evenodd" marker-start="none" marker-mid="none" marker-end="none" stroke-miterlimit="4" stroke-dashoffset="0" d="m59.63842,197.707077c0.00116,1.124237 -0.59795,2.163589 -1.571362,2.725998c-0.97345,0.5625 -2.173069,0.5625 -3.14653,0c-0.973389,-0.562408 -1.57251,-1.601761 -1.571358,-2.725998c-0.001152,-1.124207 0.597969,-2.163589 1.571358,-2.726013c0.973461,-0.562454 2.17308,-0.562454 3.14653,0c0.973412,0.562424 1.572521,1.601807 1.571362,2.726013z" id="path4083"/>
   <path fill="#ffcc00" fill-rule="evenodd" marker-start="none" marker-mid="none" marker-end="none" stroke-miterlimit="4" stroke-dashoffset="0" d="m67.977448,205.018021c0.00116,1.124237 -0.597954,2.163589 -1.571365,2.725998c-0.973442,0.5625 -2.17305,0.5625 -3.146503,0c-0.9734,-0.562408 -1.572498,-1.601761 -1.571358,-2.725998c-0.001141,-1.124237 0.597958,-2.163589 1.571358,-2.726013c0.973454,-0.562485 2.173061,-0.562485 3.146503,0c0.973412,0.562424 1.572525,1.601776 1.571365,2.726013z" id="path4085"/>
   <path fill="#ffcc00" fill-rule="evenodd" marker-start="none" marker-mid="none" marker-end="none" stroke-miterlimit="4" stroke-dashoffset="0" d="m78.601097,201.134048c0.00116,1.124268 -0.597931,2.163589 -1.571335,2.725998c-0.973442,0.562454 -2.17308,0.562454 -3.146523,0c-0.973396,-0.562408 -1.572517,-1.60173 -1.571358,-2.725998c-0.00116,-1.124207 0.597961,-2.163559 1.571358,-2.725967c0.973442,-0.562546 2.17308,-0.562546 3.146523,0c0.973404,0.562408 1.572495,1.601761 1.571335,2.725967z" id="path4087"/>
   <path fill="#ffcc00" fill-rule="evenodd" marker-start="none" marker-mid="none" marker-end="none" stroke-miterlimit="4" stroke-dashoffset="0" d="m190.800034,183.542068c0.005188,9.007767 -7.295593,16.312775 -16.30336,16.312775c-9.007782,0 -16.308548,-7.305008 -16.30336,-16.312775c-0.005188,-9.007813 7.295578,-16.312805 16.30336,-16.312805c9.007767,0 16.308548,7.304993 16.30336,16.312805z" id="path4089"/>
   <path fill="#ffcc00" fill-rule="evenodd" marker-start="none" marker-mid="none" marker-end="none" stroke-miterlimit="4" stroke-dashoffset="0" d="m179.526428,173.089905c0.001144,1.124283 -0.597961,2.163544 -1.571365,2.725998c-0.97345,0.562469 -2.17308,0.562469 -3.146515,0c-0.973419,-0.562454 -1.572525,-1.601715 -1.571381,-2.725998c-0.001144,-1.124207 0.597961,-2.163544 1.571381,-2.726013c0.973434,-0.562454 2.173065,-0.562454 3.146515,0c0.973404,0.562469 1.57251,1.601807 1.571365,2.726013z" id="path4091"/>
   <path fill="#ffcc00" fill-rule="evenodd" marker-start="none" marker-mid="none" marker-end="none" stroke-miterlimit="4" stroke-dashoffset="0" d="m188.379318,180.343597c0.00116,1.124237 -0.597946,2.163544 -1.571365,2.725967c-0.97345,0.5625 -2.173065,0.5625 -3.146515,0c-0.973389,-0.562424 -1.572525,-1.60173 -1.571365,-2.725967c-0.00116,-1.124207 0.597977,-2.163589 1.571365,-2.726013c0.97345,-0.562454 2.173065,-0.562454 3.146515,0c0.973419,0.562424 1.572525,1.601807 1.571365,2.726013z" id="path4093"/>
   <path fill="#ffcc00" fill-rule="evenodd" marker-start="none" marker-mid="none" marker-end="none" stroke-miterlimit="4" stroke-dashoffset="0" d="m178.307678,183.31337c0.001343,1.321655 -0.702957,2.543442 -1.84729,3.204636c-1.144363,0.66127 -2.554611,0.66127 -3.698975,0c-1.144333,-0.661194 -1.848633,-1.88298 -1.847275,-3.204636c-0.001358,-1.321594 0.702942,-2.543457 1.847275,-3.204636c1.144363,-0.66127 2.554611,-0.66127 3.698975,0c1.144333,0.661179 1.848633,1.883041 1.84729,3.204636z" id="path4095"/>
   <path fill="#ffcc00" fill-rule="evenodd" marker-start="none" marker-mid="none" marker-end="none" stroke-miterlimit="4" stroke-dashoffset="0" d="m169.188202,176.573929c0.001144,1.124207 -0.597961,2.163559 -1.571365,2.725967c-0.97345,0.562454 -2.17308,0.562454 -3.146515,0c-0.973419,-0.562408 -1.572525,-1.601761 -1.57135,-2.725967c-0.001175,-1.124237 0.597931,-2.16362 1.57135,-2.725998c0.973434,-0.5625 2.173065,-0.5625 3.146515,0c0.973404,0.562378 1.57251,1.601761 1.571365,2.725998z" id="path4097"/>
   <path fill="#ffcc00" fill-rule="evenodd" marker-start="none" marker-mid="none" marker-end="none" stroke-miterlimit="4" stroke-dashoffset="0" d="m167.132004,186.854965c0.00116,1.124283 -0.597946,2.163589 -1.571365,2.726044c-0.97345,0.562454 -2.173065,0.562454 -3.146515,0c-0.973389,-0.562454 -1.572525,-1.601761 -1.57135,-2.726044c-0.001175,-1.124207 0.597961,-2.163559 1.57135,-2.726013c0.97345,-0.562454 2.173065,-0.562454 3.146515,0c0.973419,0.562454 1.572525,1.601807 1.571365,2.726013z" id="path4099"/>
   <path fill="#ffcc00" fill-rule="evenodd" marker-start="none" marker-mid="none" marker-end="none" stroke-miterlimit="4" stroke-dashoffset="0" d="m175.471039,194.165909c0.001175,1.124283 -0.597961,2.163589 -1.57135,2.726044c-0.973465,0.562454 -2.173065,0.562454 -3.146515,0c-0.973419,-0.562454 -1.572525,-1.601761 -1.571365,-2.726044c-0.00116,-1.124207 0.597946,-2.163544 1.571365,-2.726013c0.97345,-0.562454 2.17305,-0.562454 3.146515,0c0.973389,0.562469 1.572525,1.601807 1.57135,2.726013z" id="path4101"/>
   <path fill="#ffcc00" fill-rule="evenodd" marker-start="none" marker-mid="none" marker-end="none" stroke-miterlimit="4" stroke-dashoffset="0" d="m186.094711,190.281967c0.001144,1.124283 -0.597961,2.163559 -1.571381,2.726013c-0.973434,0.562454 -2.173065,0.562454 -3.146515,0c-0.973389,-0.562454 -1.57251,-1.60173 -1.571365,-2.726013c-0.001144,-1.124191 0.597977,-2.163544 1.571365,-2.725998c0.97345,-0.562454 2.17308,-0.562454 3.146515,0c0.973419,0.562454 1.572525,1.601807 1.571381,2.725998z" id="path4103"/>
   <path fill="#ffcc00" fill-rule="evenodd" marker-start="none" marker-mid="none" marker-end="none" stroke-miterlimit="4" stroke-dashoffset="0" d="m247.2314,185.826691c0.005203,9.007767 -7.295563,16.312775 -16.30336,16.312775c-9.007782,0 -16.308548,-7.305008 -16.30336,-16.312775c-0.005188,-9.007813 7.295578,-16.31279 16.30336,-16.31279c9.007797,0 16.308563,7.304977 16.30336,16.31279z" id="path4105"/>
   <path fill="#ffcc00" fill-rule="evenodd" marker-start="none" marker-mid="none" marker-end="none" stroke-miterlimit="4" stroke-dashoffset="0" d="m235.957657,175.374649c0.00116,1.124237 -0.597946,2.163589 -1.571365,2.725998c-0.973434,0.5625 -2.17305,0.5625 -3.146515,0c-0.973389,-0.562408 -1.57251,-1.601761 -1.57135,-2.725998c-0.00116,-1.124207 0.597961,-2.163589 1.57135,-2.726013c0.973465,-0.5625 2.17308,-0.5625 3.146515,0c0.973419,0.562424 1.572525,1.601807 1.571365,2.726013z" id="path4107"/>
   <path fill="#ffcc00" fill-rule="evenodd" marker-start="none" marker-mid="none" marker-end="none" stroke-miterlimit="4" stroke-dashoffset="0" d="m244.810684,182.628342c0.00116,1.124237 -0.597946,2.163589 -1.571365,2.725998c-0.973434,0.5625 -2.173065,0.5625 -3.146515,0c-0.973389,-0.562408 -1.57251,-1.601761 -1.571365,-2.725998c-0.001144,-1.124252 0.597977,-2.163589 1.571365,-2.726013c0.97345,-0.5625 2.17308,-0.5625 3.146515,0c0.973419,0.562424 1.572525,1.601761 1.571365,2.726013z" id="path4109"/>
   <path fill="#ffcc00" fill-rule="evenodd" marker-start="none" marker-mid="none" marker-end="none" stroke-miterlimit="4" stroke-dashoffset="0" d="m234.739044,185.598099c0.001373,1.321671 -0.702957,2.543503 -1.84726,3.204651c-1.144394,0.661255 -2.554642,0.661255 -3.699005,0c-1.144333,-0.661148 -1.848633,-1.88298 -1.847275,-3.204651c-0.001358,-1.321579 0.702942,-2.543488 1.847275,-3.204636c1.144363,-0.661224 2.554611,-0.661224 3.699005,0c1.144302,0.661148 1.848633,1.883057 1.84726,3.204636z" id="path4111"/>
   <path fill="#ffcc00" fill-rule="evenodd" marker-start="none" marker-mid="none" marker-end="none" stroke-miterlimit="4" stroke-dashoffset="0" d="m225.619446,178.858673c0.001144,1.124237 -0.597961,2.163544 -1.571365,2.725998c-0.97345,0.562469 -2.17308,0.562469 -3.14653,0c-0.973389,-0.562454 -1.57251,-1.601761 -1.57135,-2.725998c-0.00116,-1.124237 0.597961,-2.163589 1.57135,-2.726013c0.97345,-0.562485 2.17308,-0.562485 3.14653,0c0.973404,0.562424 1.57251,1.601776 1.571365,2.726013z" id="path4113"/>
   <path fill="#ffcc00" fill-rule="evenodd" marker-start="none" marker-mid="none" marker-end="none" stroke-miterlimit="4" stroke-dashoffset="0" d="m223.563248,189.139587c0.00116,1.124283 -0.597961,2.163589 -1.571365,2.726044c-0.97345,0.562454 -2.17305,0.562454 -3.146515,0c-0.973404,-0.562454 -1.572525,-1.601761 -1.57135,-2.726044c-0.001175,-1.124207 0.597946,-2.163559 1.57135,-2.725967c0.973465,-0.5625 2.173065,-0.5625 3.146515,0c0.973404,0.562408 1.572525,1.601761 1.571365,2.725967z" id="path4115"/>
   <path fill="#ffcc00" fill-rule="evenodd" marker-start="none" marker-mid="none" marker-end="none" stroke-miterlimit="4" stroke-dashoffset="0" d="m231.902298,196.450531c0.001144,1.124283 -0.597977,2.163589 -1.571365,2.726044c-0.97345,0.562454 -2.17308,0.562454 -3.146515,0c-0.973419,-0.562454 -1.572525,-1.601761 -1.571365,-2.726044c-0.00116,-1.124207 0.597946,-2.163544 1.571365,-2.725967c0.973434,-0.5625 2.173065,-0.5625 3.146515,0c0.973389,0.562424 1.57251,1.601761 1.571365,2.725967z" id="path4117"/>
   <path fill="#ffcc00" fill-rule="evenodd" marker-start="none" marker-mid="none" marker-end="none" stroke-miterlimit="4" stroke-dashoffset="0" d="m242.526077,192.566589c0.001144,1.124252 -0.597961,2.163559 -1.571365,2.726013c-0.97345,0.562454 -2.17308,0.562454 -3.146515,0c-0.973404,-0.562454 -1.572525,-1.601761 -1.57135,-2.726013c-0.001175,-1.124191 0.597946,-2.163589 1.57135,-2.725998c0.973434,-0.562454 2.173065,-0.562454 3.146515,0c0.973404,0.562408 1.57251,1.601807 1.571365,2.725998z" id="path4119"/>
   <path fill="#ffcc00" fill-rule="evenodd" marker-start="none" marker-mid="none" marker-end="none" stroke-miterlimit="4" stroke-dashoffset="0" d="m298.522125,194.165665c0.005219,9.007813 -7.295563,16.31279 -16.303375,16.31279c-9.007751,0 -16.308502,-7.304977 -16.303314,-16.31279c-0.005188,-9.007751 7.295563,-16.312775 16.303314,-16.312775c9.007813,0 16.308594,7.305023 16.303375,16.312775z" id="path4121"/>
   <path fill="#ffcc00" fill-rule="evenodd" marker-start="none" marker-mid="none" marker-end="none" stroke-miterlimit="4" stroke-dashoffset="0" d="m287.248413,183.713669c0.00119,1.124283 -0.597931,2.163589 -1.57132,2.726044c-0.97348,0.562454 -2.173096,0.562454 -3.146515,0c-0.97345,-0.562454 -1.57254,-1.601761 -1.571411,-2.726044c-0.001129,-1.124207 0.597961,-2.163544 1.571411,-2.726013c0.973419,-0.562454 2.173035,-0.562454 3.146515,0c0.973389,0.562469 1.57251,1.601807 1.57132,2.726013z" id="path4123"/>
   <path fill="#ffcc00" fill-rule="evenodd" marker-start="none" marker-mid="none" marker-end="none" stroke-miterlimit="4" stroke-dashoffset="0" d="m296.10144,190.967361c0.00116,1.124283 -0.597961,2.163589 -1.57135,2.725998c-0.97348,0.562469 -2.173035,0.562469 -3.146515,0c-0.973389,-0.562408 -1.57251,-1.601715 -1.57135,-2.725998c-0.00116,-1.124207 0.597961,-2.163544 1.57135,-2.725967c0.97348,-0.5625 2.173035,-0.5625 3.146515,0c0.973389,0.562424 1.57251,1.601761 1.57135,2.725967z" id="path4125"/>
   <path fill="#ffcc00" fill-rule="evenodd" marker-start="none" marker-mid="none" marker-end="none" stroke-miterlimit="4" stroke-dashoffset="0" d="m286.029785,193.937134c0.001373,1.321655 -0.702942,2.543488 -1.847229,3.204681c-1.144379,0.661224 -2.554657,0.661224 -3.699036,0c-1.144287,-0.661194 -1.848602,-1.883026 -1.847229,-3.204681c-0.001373,-1.321594 0.702942,-2.543457 1.847229,-3.204636c1.144379,-0.66124 2.554657,-0.66124 3.699036,0c1.144287,0.661179 1.848602,1.883041 1.847229,3.204636z" id="path4127"/>
   <path fill="#ffcc00" fill-rule="evenodd" marker-start="none" marker-mid="none" marker-end="none" stroke-miterlimit="4" stroke-dashoffset="0" d="m276.910187,187.197693c0.00119,1.124237 -0.5979,2.163559 -1.57135,2.725967c-0.973419,0.5625 -2.173065,0.5625 -3.146515,0c-0.973389,-0.562408 -1.57254,-1.60173 -1.57135,-2.725967c-0.00119,-1.124191 0.597961,-2.163589 1.57135,-2.725998c0.97345,-0.562454 2.173096,-0.562454 3.146515,0c0.97345,0.562408 1.57254,1.601807 1.57135,2.725998z" id="path4129"/>
   <path fill="#ffcc00" fill-rule="evenodd" marker-start="none" marker-mid="none" marker-end="none" stroke-miterlimit="4" stroke-dashoffset="0" d="m274.854034,197.478653c0.001099,1.124283 -0.597992,2.163544 -1.571381,2.725967c-0.97345,0.562485 -2.173065,0.562485 -3.146515,0c-0.973419,-0.562424 -1.57251,-1.601685 -1.571381,-2.725967c-0.001129,-1.124207 0.597961,-2.163589 1.571381,-2.726013c0.97345,-0.5625 2.173065,-0.5625 3.146515,0c0.973389,0.562424 1.572479,1.601807 1.571381,2.726013z" id="path4131"/>
   <path fill="#ffcc00" fill-rule="evenodd" marker-start="none" marker-mid="none" marker-end="none" stroke-miterlimit="4" stroke-dashoffset="0" d="m283.193024,204.789597c0.00119,1.124283 -0.597931,2.163544 -1.57132,2.725967c-0.97348,0.5625 -2.173065,0.5625 -3.146515,0c-0.973389,-0.562424 -1.57251,-1.601685 -1.571411,-2.725967c-0.001099,-1.124207 0.598022,-2.163589 1.571411,-2.726013c0.97345,-0.562454 2.173035,-0.562454 3.146515,0c0.973389,0.562424 1.57251,1.601807 1.57132,2.726013z" id="path4133"/>
   <path fill="#ffcc00" fill-rule="evenodd" marker-start="none" marker-mid="none" marker-end="none" stroke-miterlimit="4" stroke-dashoffset="0" d="m293.816833,200.905624c0.001129,1.124237 -0.597961,2.163589 -1.57135,2.725998c-0.97345,0.5625 -2.173065,0.5625 -3.146515,0c-0.973419,-0.562408 -1.57251,-1.601761 -1.571381,-2.725998c-0.001129,-1.124207 0.597961,-2.163589 1.571381,-2.726013c0.97345,-0.5625 2.173065,-0.5625 3.146515,0c0.973389,0.562424 1.572479,1.601807 1.57135,2.726013z" id="path4135"/>
   <path fill="#ffcc00" fill-rule="evenodd" stroke-width="0.398769" marker-start="none" marker-mid="none" marker-end="none" stroke-miterlimit="4" stroke-dashoffset="0" d="m291.359772,227.407578c0,12.23938 -52.577103,22.161301 -117.434326,22.161301c-64.857254,0 -117.434406,-9.921921 -117.434406,-22.161301c0,-12.239288 52.577152,-22.161209 117.434406,-22.161209c64.857224,0 117.434326,9.921921 117.434326,22.161209z" id="path4141"/>
   <path fill="#ffcc00" fill-rule="evenodd" stroke-width="1px" id="path5016" d="m83.134956,227.07196c67.667213,14.009583 113.101646,13.780136 181.905754,0.16153c-68.874329,-13.866409 -113.839172,-14.324112 -181.905754,-0.16153z"/>
   <path fill="#ffcc00" fill-rule="evenodd" stroke-width="1px" id="path5018" d="m187.633591,167.092438l32.213806,1.256546c-11.232956,8.300949 -14.812271,21.742401 -2.855835,32.099594l-30.90181,-1.256577c8.719803,-7.844025 14.756821,-17.287323 1.543839,-32.099564z"/>
   <path fill="#ffcc00" fill-rule="evenodd" stroke-width="0.928204px" id="path5020" d="m246.569351,171.087128l27.42186,4.579117c-10.554199,7.082611 -15.143005,20.062042 -6.088104,31.584793l-27.128616,-4.543701c8.351898,-6.888702 15.419174,-15.542938 5.794861,-31.620209z"/>
   <path fill="#ffcc00" fill-rule="evenodd" stroke-width="1px" id="path5022" d="m129.793182,168.629242l32.168915,-2.114014c-10.304764,9.428513 -12.460999,23.170242 0.511536,32.222336l-30.864105,1.976959c7.853088,-8.711655 12.871078,-18.733658 -1.816345,-32.085281z"/>
   <path fill="#ffcc00" fill-rule="evenodd" stroke-width="0.921364px" id="path5024" d="m76.492798,176.428741l26.938965,-5.026794c-7.397186,10.251694 -7.287849,24.017929 4.970299,31.770981l-26.655434,4.960327c5.42234,-9.319809 9.061668,-19.862518 -5.25383,-31.704514z"/>
   <path fill="#ffcc00" fill-rule="evenodd" stroke-width="1px" id="path1360" d="m156.478836,161.805557l32.310089,0c-7.808258,-2.153992 -10.77002,-5.438858 -15.508835,-11.308517c-4.738831,5.869659 -8.508331,8.669876 -16.801254,11.308517z"/>
   <path fill="#ffcc00" fill-rule="evenodd" stroke-width="1px" id="path1362" d="m91.920731,168.215012l32.03717,-4.190674c-8.021683,-1.123077 -11.38446,-3.996033 -16.844574,-9.201492c-3.937454,6.434708 -7.311958,9.70018 -15.192596,13.392166z"/>
   <path fill="#ffcc00" fill-rule="evenodd" stroke-width="1px" id="path1364" d="m220.680359,163.295471l32.056549,4.039703c-7.477692,-3.113388 -10.005493,-6.742752 -13.973267,-13.158829c-5.435501,5.231094 -9.525513,7.53804 -18.083282,9.119125z"/>
   <path fill="#ffcc00" fill-rule="evenodd" stroke-width="1px" id="path1366" d="m280.63031,171.740921c8.003235,2.111954 12.054047,3.591537 14.701111,4.846527c3.257935,-3.661835 3.607941,-4.577301 5.169617,-11.470093c-7.702789,5.137131 -9.149567,6.483124 -19.870728,6.623566z"/>
   <path fill="#ffcc00" fill-rule="evenodd" stroke-width="1px" d="m280.63031,171.740921c8.003235,2.111954 12.054047,3.591537 14.701111,4.846527c3.257935,-3.661835 3.607941,-4.577301 5.169617,-11.470093c-7.702789,5.137131 -9.149567,6.483124 -19.870728,6.623566z" id="path1368"/>
   <path fill="#ffcc00" fill-rule="evenodd" stroke-width="1px" d="m66.737587,172.548676c-8.003216,2.111908 -12.054077,3.591537 -14.701077,4.846497c-3.257931,-3.661789 -3.607971,-4.577271 -5.169621,-11.470078c7.702789,5.137161 9.14954,6.483093 19.870697,6.623581z" id="path1370"/>
   <path fill="#ffcc00" fill-rule="evenodd" stroke-width="1px" id="path1372" d="m66.737587,172.548676c-8.003216,2.111908 -12.054077,3.591537 -14.701077,4.846497c-3.257931,-3.661789 -3.607971,-4.577271 -5.169621,-11.470078c7.702789,5.137161 9.14954,6.483093 19.870697,6.623581z"/>
   <path fill="#ffcc00" fill-rule="evenodd" marker-start="none" marker-mid="none" marker-end="none" stroke-miterlimit="4" stroke-dashoffset="0" d="m189.564301,129.980042c0,4.447327 -7.29068,8.052612 -16.28421,8.052612c-8.993484,0 -16.28421,-3.605286 -16.28421,-8.052612c0,-4.447342 7.290726,-8.05262 16.28421,-8.05262c8.99353,0 16.28421,3.605278 16.28421,8.05262z" id="path1374"/>
   <path fill="#ffcc00" fill-rule="evenodd" marker-start="none" marker-mid="none" marker-end="none" stroke-miterlimit="4" stroke-dashoffset="0" d="m257.796326,135.046768c-0.501343,4.418991 -8.151978,7.179413 -17.088181,6.165588c-8.936172,-1.013794 -15.774002,-5.417953 -15.272675,-9.83696c0.501343,-4.418983 8.151993,-7.17942 17.088181,-6.165604c8.936188,1.013824 15.774017,5.417969 15.272675,9.836975z" id="path2249"/>
   <path fill="#ffcc00" fill-rule="evenodd" marker-start="none" marker-mid="none" marker-end="none" stroke-miterlimit="4" stroke-dashoffset="0" d="m120.78363,131.545471c0.543198,4.414032 -6.252579,8.882767 -15.178772,9.981232c-8.92617,1.098419 -16.602661,-1.589355 -17.145851,-6.003418c-0.54319,-4.414047 6.252609,-8.882797 15.178772,-9.981232c8.926224,-1.09845 16.602654,1.589363 17.145851,6.003418z" id="path2251"/>
   <path fill="#ffcc00" fill-rule="evenodd" marker-start="none" marker-mid="none" marker-end="none" stroke-miterlimit="4" stroke-dashoffset="0" d="m63.52924,139.010544c2.034008,3.954941 -2.800579,10.495514 -10.798401,14.608734c-7.997768,4.113205 -16.13018,4.241562 -18.1642,0.286606c-2.034019,-3.954941 2.800621,-10.495514 10.798401,-14.608719c7.99781,-4.113266 16.130192,-4.241577 18.1642,-0.286621z" id="path2253"/>
   <path fill="#ffcc00" fill-rule="evenodd" marker-start="none" marker-mid="none" marker-end="none" stroke-miterlimit="4" stroke-dashoffset="0" d="m311.430206,152.734528c-1.802307,4.065765 -9.928589,4.407043 -18.150452,0.762283c-8.221863,-3.64476 -13.425964,-9.89537 -11.623566,-13.961121c1.802307,-4.065765 9.928619,-4.407028 18.150421,-0.762268c8.221924,3.644745 13.425934,9.895355 11.623596,13.961105z" id="path2255"/>
   <path fill="#ffcc00" fill-rule="evenodd" stroke-width="0.4" stroke-miterlimit="4" id="path2257" d="m48.563179,157.928345c9.423759,-2.315552 11.739323,-5.438843 16.155045,-10.823853c11.254646,0.700043 15.562668,0.269226 22.617027,-5.169617c16.639709,5.38501 22.132416,4.792648 36.348869,-4.684982c9.477608,6.462036 22.832451,5.815826 31.502327,-0.807755c13.462524,7.054367 24.66333,6.677429 35.217957,0.16156c12.33168,6.138916 16.908966,6.946671 30.694595,0.969299c14.916473,8.508316 22.240097,9.423782 35.541077,4.361877c7.754425,5.654236 13.408661,6.462006 23.101746,5.008057c4.954193,6.946671 10.069946,9.046829 16.478088,10.985443c-3.715607,18.685959 -52.019196,12.00853 -57.188812,-9.369949c-8.292923,13.785629 -48.411285,15.131897 -66.558762,-3.231003c-11.200836,12.870178 -55.681023,20.732285 -67.043419,3.231003c-7.000519,22.024719 -55.196377,27.894348 -56.865738,9.369919z"/>
   <path fill="#ffcc00" fill-rule="evenodd" stroke-width="0.3" stroke-miterlimit="4" id="path3132" d="m178.934357,116.409889c2.019379,-18.470596 17.770538,-20.705376 24.717194,-10.82386l0,-19.386063c-0.075027,-0.753868 -0.378525,-2.193207 -1.938599,-2.261688l-13.674667,0.076698c-1.023163,-9.962288 -3.718918,-19.031937 -15.242859,-27.378727c-2.692505,1.50782 -14.754944,10.123821 -15.34729,27.302029l-13.247116,0c-1.507797,0.161545 -2.369415,-0.24234 -2.584808,1.453964l0,20.355324c8.158279,-11.308533 22.778595,-6.946678 24.717194,10.662323c4.927307,-2.261711 8.07753,-2.423271 12.600952,0z"/>
   <path fill="#ffcc00" fill-rule="evenodd" stroke-width="0.3" stroke-miterlimit="4" id="path3134" d="m109.677383,119.801529c-0.256485,-18.578896 15.10273,-22.724686 23.206604,-13.767708l-2.372726,-19.240318c-0.166748,-0.739044 -0.644135,-2.130386 -2.200867,-2.007431l-13.562462,1.749825c-2.234764,-9.762146 -6.020309,-18.43367 -18.47921,-25.307236c-2.487724,1.825989 -13.404922,11.853622 -11.890335,28.975128l-13.14753,1.621384c-1.476685,0.344879 -2.381256,0.0495 -2.387428,1.759384l2.491379,20.202286c6.71286,-12.222031 21.757118,-9.682373 25.836365,7.556969c4.613426,-2.847771 7.720184,-3.393684 12.50621,-1.542282z"/>
   <path fill="#ffcc00" fill-rule="evenodd" stroke-width="0.3" stroke-miterlimit="4" id="path3136" d="m248.786804,121.313683c4.233765,-18.091866 20.139465,-18.40937 25.842804,-7.761765l2.339661,-19.244331c0.016479,-0.757454 -0.111115,-2.222839 -1.65152,-2.479134l-13.583954,-1.574173c0.186646,-10.01297 -1.394836,-19.341667 -11.827209,-29.01823c-2.854797,1.171852 -15.868896,8.269123 -18.530075,25.250263l-13.150314,-1.598709c-1.516281,-0.021622 -2.32283,-0.526527 -2.741379,1.131348l-2.456604,20.206558c9.46344,-10.241249 23.45047,-4.146843 23.249756,13.567444c5.16423,-1.650551 8.310944,-1.43074 12.508835,1.520729z"/>
   <path fill="#ffcc00" fill-rule="evenodd" stroke-width="0.3" stroke-miterlimit="4" id="path3138" d="m332.971008,81.866203c-3.071014,0.300499 -18.263,3.922897 -25.699005,19.4198l-11.105011,-5.316406c-1.445984,-0.4571 -3.100983,-1.172798 -3.979004,0.294502l-8.625977,17.844902c12.010986,-7.084 23.765991,2.891998 18.474976,19.799004c4.20401,-0.669006 6.20401,1.800995 6.843018,0.408997l24.091003,-52.450798l0,0z"/>
   <path fill="#ffcc00" fill-rule="evenodd" stroke-width="0.3" stroke-miterlimit="4" id="path3140" d="m13.05482,81.477707c3.07128,0.30056 18.26282,3.92292 25.698972,19.41951l11.105568,-5.316071c1.445911,-0.457085 3.101101,-1.172775 3.979092,0.294495l8.62553,17.844803c-12.010674,-7.084114 -23.765942,2.892464 -18.475132,19.799332c-4.203739,-0.669373 -6.203831,1.800629 -6.843109,0.408783l-24.09092,-52.450851z"/>
  </g>
 </g>
</svg>